<svg width="187" height="100" viewBox="0 0 187 100" fill="none" xmlns="http://www.w3.org/2000/svg">
<path d="M177 53.3333V36.6667C177 34.8986 176.298 33.2029 175.047 31.9526C173.797 30.7024 172.101 30 170.333 30H123.667C121.899 30 120.203 30.7024 118.953 31.9526C117.702 33.2029 117 34.8986 117 36.6667V56.6667C117 58.4348 117.702 60.1305 118.953 61.3807C120.203 62.631 121.899 63.3333 123.667 63.3333H147" stroke="#D64D00" stroke-width="5" stroke-linecap="round" stroke-linejoin="round"/>
<path d="M176.597 66.39C178.243 67.4034 178.14 69.8667 176.447 70.06L167.89 71.03L164.053 78.7367C163.293 80.2667 160.943 79.5167 160.553 77.6234L156.37 57.2367C156.04 55.6367 157.48 54.63 158.87 55.4867L176.597 66.39V66.39Z" stroke="#D64D00" stroke-width="5"/>
<path d="M133.667 46.7L133.7 46.6633M147 46.7L147.033 46.6633L147 46.7ZM160.333 46.7L160.367 46.6633L160.333 46.7Z" stroke="#D64D00" stroke-width="5" stroke-linecap="round" stroke-linejoin="round"/>
<path d="M66.6666 50L66.7124 50.0417L66.6666 50ZM79.1666 50L79.2124 50.0417L79.1666 50ZM91.6666 50L91.7124 50.0417L91.6666 50ZM8.33325 50C8.33325 73.0125 26.9874 91.6667 49.9999 91.6667C56.469 91.672 62.8501 90.1687 68.6365 87.2763C74.4229 84.3838 79.4551 80.1818 83.3332 75.0042L49.9999 50L83.3332 24.9958C79.4551 19.8182 74.4229 15.6162 68.6365 12.7237C62.8501 9.83125 56.469 8.32798 49.9999 8.33333C26.9874 8.33333 8.33325 26.9875 8.33325 50Z" stroke="#D64D00" stroke-width="6.25" stroke-linecap="round" stroke-linejoin="round"/>
</svg>
